<?xml version="1.0" encoding="UTF-8" standalone="no"?>
<svg
   xmlns:dc="http://purl.org/dc/elements/1.1/"
   xmlns:cc="http://creativecommons.org/ns#"
   xmlns:rdf="http://www.w3.org/1999/02/22-rdf-syntax-ns#"
   xmlns:svg="http://www.w3.org/2000/svg"
   xmlns="http://www.w3.org/2000/svg"
   xmlns:sodipodi="http://sodipodi.sourceforge.net/DTD/sodipodi-0.dtd"
   xmlns:inkscape="http://www.inkscape.org/namespaces/inkscape"
   style="enable-background:new 0 0 500 500;"
   version="1.1"
   viewBox="0 0 500 500"
   xml:space="preserve"
   id="svg37"
   sodipodi:docname="1.svg"
   inkscape:version="0.92.4 (5da689c313, 2019-01-14)"><metadata
     id="metadata43"><rdf:RDF><cc:Work
         rdf:about=""><dc:format>image/svg+xml</dc:format><dc:type
           rdf:resource="http://purl.org/dc/dcmitype/StillImage" /><dc:title></dc:title></cc:Work></rdf:RDF></metadata><defs
     id="defs41" /><sodipodi:namedview
     pagecolor="#ffffff"
     bordercolor="#666666"
     borderopacity="1"
     objecttolerance="10"
     gridtolerance="10"
     guidetolerance="10"
     inkscape:pageopacity="0"
     inkscape:pageshadow="2"
     inkscape:window-width="2560"
     inkscape:window-height="1361"
     id="namedview39"
     showgrid="false"
     inkscape:zoom="1.888"
     inkscape:cx="76.321745"
     inkscape:cy="339.37368"
     inkscape:window-x="-9"
     inkscape:window-y="-9"
     inkscape:window-maximized="1"
     inkscape:current-layer="_x32_4" /><g
     id="exploring-bugs"><g
       id="g33"><g
         id="_x32_4"
         transform="translate(-4.2372924,-55.614402)"><g
           id="g22"><rect
             height="11.317"
             style="fill:#675f58"
             width="11.312"
             x="225.64"
             y="311.83801"
             id="rect4" /><rect
             height="11.317"
             style="fill:#675f58"
             width="11.317"
             x="214.323"
             y="300.521"
             id="rect6" /><rect
             height="11.317"
             style="fill:#675f58"
             width="11.312"
             x="203.011"
             y="198.67599"
             id="rect8" /><rect
             height="11.317"
             style="fill:#675f58"
             width="11.312"
             x="259.59201"
             y="311.83801"
             id="rect10" /><rect
             height="11.317"
             style="fill:#675f58"
             width="11.322"
             x="270.90399"
             y="300.521"
             id="rect12" /><path
             d="m 248.275,289.203 h 15.278 c -10.406,-9.548 -16.976,-23.209 -16.976,-38.411 0,-10.938 3.391,-21.072 9.153,-29.482 h -7.455 -22.635 v -11.317 h -11.317 v 11.317 h -11.312 v 11.317 11.317 11.317 h -11.312 v 11.317 h -11.323 v 11.307 22.634 h 11.323 v -22.634 h 11.312 v 22.634 h 11.312 v -11.317 h 33.952 z m -33.952,-45.258 h 11.317 v 22.635 h -11.317 z"
             style="fill:#675f58"
             id="path14"
             inkscape:connector-curvature="0" /><path
             d="m 316.168,266.58 h -11.317 v -11.317 h -11.317 v -11.317 -11.317 -11.317 h -2.084 c -13.227,3.299 -23.068,15.245 -23.068,29.482 0,4.297 0.9,8.377 2.523,12.099 v -18.945 h 11.322 v 22.635 h -9.386 c 4.471,7.324 11.936,12.608 20.692,14.139 v -2.832 h 11.317 v 2.701 c 4.145,-0.835 7.975,-2.528 11.317,-4.872 v -9.139 z"
             style="fill:#675f58"
             id="path16"
             inkscape:connector-curvature="0" /><path
             d="m 282.227,300.261 v 0.26 h 0.705 c -0.239,-0.076 -0.472,-0.173 -0.705,-0.26 z"
             style="fill:#675f58"
             id="path18"
             inkscape:connector-curvature="0" /><path
             d="M 382.704,301.877 V 168.066 c -0.022,-14.095 -11.447,-25.51 -25.532,-25.542 H 136.643 c -14.089,0.033 -25.51,11.447 -25.531,25.542 v 163.878 c 0.021,14.095 11.442,25.51 25.531,25.532 h 220.529 c 11.426,-0.012 20.985,-7.585 24.241,-17.937 -1.514,0.391 -3.061,0.651 -4.655,0.651 -3.375,0 -6.662,-0.923 -9.527,-2.637 -2.002,3.537 -5.762,5.989 -10.059,5.989 H 136.643 c -6.331,0 -11.588,-5.263 -11.604,-11.6 V 184.429 H 368.783 V 289.485 Z M 337.392,170.149 h -28.537 c -3.017,0 -5.458,-2.43 -5.458,-5.447 0,-3.017 2.441,-5.458 5.458,-5.458 h 28.537 c 3.021,0 5.463,2.441 5.463,5.458 0,3.017 -2.442,5.447 -5.463,5.447 z m 17.068,0.359 c -3.201,0 -5.8,-2.605 -5.8,-5.805 0,-3.201 2.599,-5.805 5.8,-5.805 3.212,0 5.805,2.604 5.805,5.805 0,3.2 -2.593,5.805 -5.805,5.805 z"
             style="fill:#675f58"
             id="path20"
             inkscape:connector-curvature="0" /></g><g
           id="g30"><path
             d="m 351.053,282.422 c -5.002,-4.46 -12.663,-4.015 -17.123,0.987 -4.448,5.002 -4.004,12.663 0.993,17.111 l 4.129,3.679 16.699,-17.6 z"
             style="fill:#ff931e"
             id="path24"
             inkscape:connector-curvature="0" /><path
             d="m 384.831,312.5 -2.127,-1.898 -13.922,-12.392 -9.896,-8.812 -16.699,17.59 26.52,23.621 c 0.021,0.022 0.049,0.033 0.075,0.055 3.966,3.473 9.549,3.863 13.911,1.41 1.139,-0.64 2.213,-1.432 3.125,-2.463 4.459,-5.002 4.015,-12.662 -0.987,-17.111 z"
             style="fill:#ff931e"
             id="path26"
             inkscape:connector-curvature="0" /><path
             d="m 344.493,250.792 c 0,-25.239 -20.459,-45.703 -45.697,-45.703 -1.785,0 -3.526,0.13 -5.263,0.326 -3.95,0.455 -7.731,1.432 -11.307,2.821 -1.351,0.532 -2.658,1.118 -3.939,1.758 -2.621,1.324 -5.089,2.876 -7.384,4.655 -2.556,1.975 -4.91,4.199 -7.005,6.662 -6.727,7.965 -10.807,18.24 -10.807,29.482 0,16.135 8.388,30.284 21.018,38.411 2.539,1.639 5.257,3.027 8.116,4.135 3.575,1.399 7.356,2.365 11.307,2.821 1.736,0.195 3.477,0.325 5.263,0.325 2.056,0 4.068,-0.174 6.055,-0.445 3.949,-0.531 7.758,-1.529 11.317,-2.983 16.618,-6.848 28.326,-23.19 28.326,-42.265 z m -28.325,32.585 c -3.473,1.855 -7.292,3.146 -11.317,3.809 -1.976,0.325 -3.988,0.542 -6.055,0.542 -1.791,0 -3.538,-0.173 -5.263,-0.423 -17.898,-2.561 -31.674,-17.903 -31.674,-36.513 0,-14.432 8.296,-26.899 20.367,-32.975 4.98,-2.506 10.602,-3.95 16.569,-3.95 20.394,0 36.925,16.525 36.925,36.925 10e-4,14.106 -7.915,26.367 -19.552,32.585 z"
             style="fill:#ff931e"
             id="path28"
             inkscape:connector-curvature="0" /></g></g></g></g><g
     id="Layer_1" /></svg>